<svg width="1066" height="1522" viewBox="0 0 1066 1522" fill="none" xmlns="http://www.w3.org/2000/svg">
<rect width="1066" height="1522" fill="white"/>
<g clip-path="url(#clip0_2_2)">
<path d="M160.284 1254.24L159.333 1252.48C172.086 1245.58 187.958 1237 196.249 1222.91C204.421 1209.03 204.604 1190.17 196.727 1173.7C190.023 1159.69 177.709 1147.13 161.116 1137.39C157.843 1135.47 154.407 1133.65 151.084 1131.89C143.053 1127.63 134.748 1123.23 127.9 1116.98C118.468 1108.38 111.332 1093.95 116.651 1081.09C118.4 1076.99 121.265 1073.46 124.92 1070.9C128.575 1068.34 132.874 1066.86 137.329 1066.63L137.441 1068.62C133.361 1068.84 129.422 1070.2 126.073 1072.54C122.724 1074.88 120.098 1078.11 118.494 1081.87C113.551 1093.82 120.332 1107.38 129.248 1115.51C135.908 1121.58 144.1 1125.92 152.021 1130.12C155.363 1131.89 158.818 1133.72 162.129 1135.67C179.067 1145.61 191.655 1158.46 198.531 1172.84C206.692 1189.9 206.478 1209.48 197.972 1223.93C189.399 1238.5 173.256 1247.23 160.284 1254.24Z" fill="#F1F1F1"/>
<path d="M150.004 1077.17C159.669 1077.17 167.504 1073.36 167.504 1068.67C167.504 1063.97 159.669 1060.17 150.004 1060.17C140.339 1060.17 132.504 1063.97 132.504 1068.67C132.504 1073.36 140.339 1077.17 150.004 1077.17Z" fill="#F1F1F1"/>
<path d="M164.004 1133.17C173.669 1133.17 181.504 1129.36 181.504 1124.67C181.504 1119.97 173.669 1116.17 164.004 1116.17C154.339 1116.17 146.504 1119.97 146.504 1124.67C146.504 1129.36 154.339 1133.17 164.004 1133.17Z" fill="#F1F1F1"/>
<path d="M132.004 1142.17C141.669 1142.17 149.504 1138.36 149.504 1133.67C149.504 1128.97 141.669 1125.17 132.004 1125.17C122.339 1125.17 114.504 1128.97 114.504 1133.67C114.504 1138.36 122.339 1142.17 132.004 1142.17Z" fill="#F1F1F1"/>
<path d="M182.004 1189.17C191.669 1189.17 199.504 1185.36 199.504 1180.67C199.504 1175.97 191.669 1172.17 182.004 1172.17C172.339 1172.17 164.504 1175.97 164.504 1180.67C164.504 1185.36 172.339 1189.17 182.004 1189.17Z" fill="#F1F1F1"/>
<path d="M217.004 1189.17C226.669 1189.17 234.504 1185.36 234.504 1180.67C234.504 1175.97 226.669 1172.17 217.004 1172.17C207.339 1172.17 199.504 1175.97 199.504 1180.67C199.504 1185.36 207.339 1189.17 217.004 1189.17Z" fill="#F1F1F1"/>
<path d="M861.671 1168H576.838C570.087 1167.99 563.614 1165.31 558.841 1160.53C554.067 1155.76 551.382 1149.29 551.374 1142.54V729.464C551.382 722.713 554.067 716.24 558.841 711.467C563.614 706.693 570.087 704.008 576.838 704H861.671C868.422 704.008 874.895 706.693 879.668 711.467C884.442 716.24 887.127 722.713 887.135 729.464V1142.54C887.127 1149.29 884.442 1155.76 879.668 1160.53C874.895 1165.31 868.422 1167.99 861.671 1168V1168Z" fill="#E6E6E6"/>
<path d="M862.172 1151.75H576.336C574.255 1151.75 572.26 1150.92 570.789 1149.45C569.317 1147.98 568.489 1145.99 568.487 1143.9V728.096C568.489 726.015 569.317 724.02 570.789 722.548C572.26 721.077 574.255 720.249 576.336 720.246H862.172C864.254 720.249 866.249 721.077 867.72 722.548C869.192 724.02 870.02 726.015 870.022 728.096V1143.9C870.02 1145.99 869.192 1147.98 867.72 1149.45C866.249 1150.92 864.254 1151.75 862.172 1151.75V1151.75Z" fill="white"/>
<path d="M718.171 713.965C719.368 713.965 720.338 712.995 720.338 711.798C720.338 710.602 719.368 709.632 718.171 709.632C716.975 709.632 716.005 710.602 716.005 711.798C716.005 712.995 716.975 713.965 718.171 713.965Z" fill="white"/>
<path d="M834.465 994.05H604.044C603.852 994.05 603.669 993.974 603.534 993.839C603.399 993.703 603.323 993.52 603.323 993.329V882.888C603.323 882.696 603.399 882.513 603.534 882.378C603.669 882.242 603.852 882.166 604.044 882.166C604.235 882.166 604.418 882.242 604.554 882.378C604.689 882.513 604.765 882.696 604.765 882.888V992.608H834.465C834.656 992.608 834.839 992.685 834.974 992.82C835.108 992.955 835.184 993.138 835.184 993.329C835.184 993.519 835.108 993.702 834.974 993.838C834.839 993.973 834.656 994.049 834.465 994.05V994.05Z" fill="#3F3D56"/>
<path d="M653.275 986.117H632.317C631.75 986.117 631.205 985.891 630.804 985.49C630.403 985.089 630.177 984.545 630.176 983.977V955.087C630.177 954.519 630.403 953.975 630.804 953.574C631.205 953.173 631.75 952.947 632.317 952.946H653.275C653.842 952.947 654.386 953.173 654.788 953.574C655.189 953.975 655.415 954.519 655.415 955.087V983.977C655.415 984.545 655.189 985.089 654.788 985.49C654.386 985.891 653.842 986.117 653.275 986.117Z" fill="#0D6EFD"/>
<path d="M691.494 986.117H670.536C669.969 986.117 669.424 985.891 669.023 985.49C668.622 985.089 668.396 984.545 668.395 983.977V927.684C668.396 927.117 668.622 926.573 669.023 926.171C669.424 925.77 669.969 925.544 670.536 925.544H691.494C692.061 925.544 692.605 925.77 693.007 926.171C693.408 926.573 693.634 927.117 693.634 927.684V983.977C693.634 984.545 693.408 985.089 693.007 985.49C692.605 985.891 692.061 986.117 691.494 986.117V986.117Z" fill="#0D6EFD"/>
<path d="M729.713 986.117H708.755C708.188 986.117 707.644 985.891 707.242 985.49C706.841 985.089 706.615 984.545 706.615 983.977V955.087C706.615 954.519 706.841 953.975 707.242 953.574C707.644 953.173 708.188 952.947 708.755 952.946H729.713C730.28 952.947 730.825 953.173 731.226 953.574C731.627 953.975 731.853 954.519 731.854 955.087V983.977C731.853 984.545 731.627 985.089 731.226 985.49C730.825 985.891 730.28 986.117 729.713 986.117V986.117Z" fill="#0D6EFD"/>
<path d="M767.932 986.117H746.974C746.42 986.129 745.883 985.921 745.482 985.538C745.08 985.155 744.847 984.629 744.834 984.074V916.771C744.847 916.216 745.08 915.69 745.482 915.307C745.883 914.924 746.42 914.715 746.974 914.727H767.932C768.487 914.715 769.023 914.924 769.424 915.307C769.826 915.69 770.059 916.216 770.073 916.771V984.074C770.059 984.629 769.826 985.155 769.424 985.538C769.023 985.921 768.487 986.129 767.932 986.117V986.117Z" fill="#0D6EFD"/>
<path d="M806.151 986.117H785.193C784.626 986.117 784.082 985.891 783.68 985.49C783.279 985.089 783.053 984.545 783.053 983.977V897.397C783.053 896.83 783.279 896.286 783.68 895.885C784.082 895.483 784.626 895.258 785.193 895.257H806.151C806.719 895.258 807.263 895.483 807.664 895.885C808.065 896.286 808.291 896.83 808.292 897.397V983.977C808.291 984.545 808.065 985.089 807.664 985.49C807.263 985.891 806.719 986.117 806.151 986.117V986.117Z" fill="#0D6EFD"/>
<path d="M642.796 944.293C645.185 944.293 647.123 942.356 647.123 939.966C647.123 937.577 645.185 935.639 642.796 935.639C640.406 935.639 638.469 937.577 638.469 939.966C638.469 942.356 640.406 944.293 642.796 944.293Z" fill="#3F3D56"/>
<path d="M681.015 916.169C683.405 916.169 685.342 914.232 685.342 911.843C685.342 909.453 683.405 907.516 681.015 907.516C678.625 907.516 676.688 909.453 676.688 911.843C676.688 914.232 678.625 916.169 681.015 916.169Z" fill="#3F3D56"/>
<path d="M719.234 944.293C721.624 944.293 723.561 942.356 723.561 939.966C723.561 937.577 721.624 935.639 719.234 935.639C716.844 935.639 714.907 937.577 714.907 939.966C714.907 942.356 716.844 944.293 719.234 944.293Z" fill="#3F3D56"/>
<path d="M757.453 902.468C759.843 902.468 761.78 900.531 761.78 898.141C761.78 895.752 759.843 893.815 757.453 893.815C755.064 893.815 753.126 895.752 753.126 898.141C753.126 900.531 755.064 902.468 757.453 902.468Z" fill="#3F3D56"/>
<path d="M795.672 886.604C798.062 886.604 799.999 884.667 799.999 882.277C799.999 879.887 798.062 877.95 795.672 877.95C793.283 877.95 791.346 879.887 791.346 882.277C791.346 884.667 793.283 886.604 795.672 886.604Z" fill="#3F3D56"/>
<path d="M719.325 940.935L681.015 912.241L643.228 940.543L642.363 939.389L681.015 910.438L719.143 938.997L757.031 897.534L757.184 897.472L795.403 882.073L795.942 883.411L757.875 898.749L719.325 940.935Z" fill="#3F3D56"/>
<path d="M382.628 928.485C381.166 928.484 379.721 928.805 378.396 929.424C377.071 930.043 375.899 930.946 374.962 932.069L330.152 930.668L328.399 923.114L305.209 934.43L308.209 955.119L376.499 946.375C377.756 947.352 379.227 948.014 380.792 948.307C382.356 948.6 383.967 948.515 385.492 948.06C387.016 947.605 388.41 946.792 389.558 945.689C390.705 944.587 391.573 943.226 392.089 941.721C392.604 940.216 392.753 938.609 392.523 937.035C392.292 935.46 391.69 933.963 390.764 932.669C389.839 931.374 388.618 930.319 387.203 929.592C385.788 928.864 384.219 928.485 382.628 928.485H382.628Z" fill="#9F616A"/>
<path d="M299.627 1241.09H311.887L317.72 1193.8L299.625 1193.8L299.627 1241.09Z" fill="#9F616A"/>
<path d="M296.5 1237.08L320.644 1237.08H320.645C324.726 1237.08 328.639 1238.7 331.525 1241.59C334.41 1244.47 336.031 1248.39 336.032 1252.47V1252.97L296.501 1252.97L296.5 1237.08Z" fill="#2F2E41"/>
<path d="M253.367 1231.34L265.145 1234.74L283.877 1190.93L266.494 1185.91L253.367 1231.34Z" fill="#9F616A"/>
<path d="M251.474 1226.62L274.669 1233.33L274.67 1233.33C278.59 1234.46 281.899 1237.1 283.87 1240.68C285.841 1244.25 286.312 1248.46 285.179 1252.38L285.04 1252.86L247.063 1241.88L251.474 1226.62Z" fill="#2F2E41"/>
<path d="M284.572 1035.75C284.572 1035.75 280.211 1047.91 287.09 1064.51L292.399 1132.88L293.969 1230.11H316.32L329.846 1130.99L337.969 1041.11L284.572 1035.75Z" fill="#2F2E41"/>
<path d="M272.001 1035.75C272.001 1035.75 267.64 1047.91 274.519 1064.51L279.828 1132.88L253.399 1225.49H275.749L317.275 1130.99L325.399 1041.11L272.001 1035.75Z" fill="#2F2E41"/>
<path d="M337.567 878.938C351.132 878.938 362.128 867.941 362.128 854.377C362.128 840.812 351.132 829.816 337.567 829.816C324.002 829.816 313.006 840.812 313.006 854.377C313.006 867.941 324.002 878.938 337.567 878.938Z" fill="#9F616A"/>
<path d="M340.852 914.121L335.875 890.995L310.531 876.605L305.391 883.8C305.391 883.8 269.127 893.329 273.513 934.972C277.899 976.614 275.899 996.614 275.899 996.614L265.899 1042.61C265.899 1042.61 268.977 1043.14 339.628 1055.49L342.628 955.485L340.852 914.121Z" fill="#CBCBCB"/>
<path opacity="0.1" d="M316.266 1139.17L293.251 1185.66V1198.98L316.266 1139.17Z" fill="black"/>
<path d="M311.085 862.145C313.427 868.417 322.288 869.286 325.414 863.366C325.657 862.906 325.855 862.425 326.005 861.927C326.861 859.083 326.323 855.951 327.904 853.232C328.289 852.552 328.841 851.981 329.509 851.574C334.765 848.474 339.939 858.311 344.826 855.559C347.823 853.872 347.182 848.971 349.849 846.799C353.369 843.932 358.454 848.202 362.967 847.714C367.989 847.172 370.365 840.81 369.274 835.879C367.942 829.864 363.237 824.983 357.716 822.252C352.194 819.521 345.921 818.696 339.763 818.543C332.766 818.369 325.445 819.112 319.529 822.852C312.335 827.399 308.282 835.866 307.384 844.33C306.839 849.478 309.173 857.024 311.085 862.145Z" fill="#2F2E41"/>
<path d="M431.44 1030.73C431.476 1030.73 431.512 1030.73 431.549 1030.73C450.053 1029.76 467.495 1021.78 480.325 1008.41C493.156 995.044 500.414 977.29 500.621 958.761C500.829 940.233 493.972 922.32 481.444 908.667C468.916 895.014 451.658 886.645 433.179 885.263C432.951 885.245 432.721 885.274 432.505 885.349C432.288 885.424 432.089 885.543 431.921 885.699C431.753 885.852 431.619 886.038 431.526 886.245C431.434 886.452 431.385 886.677 431.383 886.904L429.79 1029.05C429.786 1029.49 429.957 1029.92 430.267 1030.23C430.576 1030.55 430.998 1030.73 431.44 1030.73V1030.73Z" fill="#3F3D56"/>
<path d="M374.279 908.768C374.847 908.774 375.388 909.006 375.786 909.411L424.72 959.455C424.917 959.655 425.072 959.893 425.177 960.153C425.282 960.414 425.333 960.692 425.33 960.973L424.567 1028.99C424.565 1029.28 424.502 1029.57 424.383 1029.84C424.264 1030.1 424.092 1030.34 423.876 1030.54C423.659 1030.74 423.404 1030.89 423.127 1030.99C422.849 1031.08 422.554 1031.12 422.261 1031.1C408.655 1030.08 395.603 1025.29 384.571 1017.26C373.539 1009.23 364.964 998.288 359.81 985.655C354.656 973.022 353.127 959.202 355.395 945.748C357.663 932.294 363.638 919.739 372.649 909.493C372.844 909.273 373.082 909.094 373.349 908.97C373.616 908.845 373.906 908.776 374.2 908.768C374.226 908.767 374.253 908.767 374.279 908.768Z" fill="#E6E6E6"/>
<path d="M424.039 884.682C424.585 884.688 425.109 884.902 425.503 885.28C425.715 885.482 425.883 885.725 425.996 885.994C426.109 886.264 426.165 886.553 426.16 886.846L425.473 948.215C425.468 948.637 425.338 949.049 425.099 949.398C424.86 949.746 424.524 950.017 424.131 950.174C423.739 950.331 423.309 950.369 422.896 950.282C422.482 950.195 422.104 949.987 421.808 949.685L379.107 906.015C378.91 905.814 378.755 905.576 378.651 905.315C378.546 905.054 378.494 904.775 378.497 904.494C378.501 904.212 378.559 903.935 378.67 903.676C378.781 903.418 378.941 903.183 379.142 902.987C379.168 902.962 379.195 902.937 379.222 902.913C391.641 891.982 407.385 885.559 423.906 884.684C423.95 884.682 423.995 884.681 424.039 884.682Z" fill="#0D6EFD"/>
<path d="M357.628 956.485C356.166 956.484 354.721 956.805 353.396 957.424C352.071 958.043 350.899 958.946 349.962 960.069L305.152 958.668L303.399 951.114L280.209 962.43L283.209 983.119L351.499 974.375C352.756 975.352 354.227 976.014 355.792 976.307C357.356 976.6 358.967 976.515 360.492 976.06C362.016 975.605 363.41 974.792 364.558 973.689C365.705 972.587 366.573 971.226 367.089 969.721C367.604 968.216 367.753 966.609 367.523 965.035C367.292 963.46 366.69 961.963 365.764 960.669C364.839 959.374 363.618 958.319 362.203 957.592C360.788 956.864 359.219 956.485 357.628 956.485H357.628Z" fill="#9F616A"/>
<path d="M276.431 970.951L275.185 909.318C275.142 907.162 275.526 905.018 276.316 903.01C277.106 901.003 278.287 899.172 279.789 897.624C281.291 896.075 283.085 894.84 285.067 893.989C287.05 893.139 289.181 892.69 291.338 892.668C293.495 892.646 295.635 893.052 297.635 893.862C299.634 894.673 301.453 895.872 302.986 897.389C304.519 898.907 305.736 900.713 306.566 902.704C307.397 904.695 307.825 906.831 307.825 908.988V954.031L276.431 970.951Z" fill="#CBCBCB"/>
<path d="M490 1254H109C108.735 1254 108.48 1253.89 108.293 1253.71C108.105 1253.52 108 1253.27 108 1253C108 1252.73 108.105 1252.48 108.293 1252.29C108.48 1252.11 108.735 1252 109 1252H490C490.265 1252 490.52 1252.11 490.707 1252.29C490.895 1252.48 491 1252.73 491 1253C491 1253.27 490.895 1253.52 490.707 1253.71C490.52 1253.89 490.265 1254 490 1254Z" fill="#CBCBCB"/>
</g>
<path d="M533 561.557C767.721 561.557 958 556.234 958 549.669C958 543.103 767.721 537.781 533 537.781C298.279 537.781 108 543.103 108 549.669C108 556.234 298.279 561.557 533 561.557Z" fill="#E6E6E6"/>
<path d="M759.495 420.853C758.958 420.861 758.422 420.868 757.878 420.868C757.334 420.868 756.797 420.861 756.26 420.853C727.811 420.206 707.19 402.431 712.439 383.781L725.238 338.283L728.473 326.771L785.813 327.749L789.297 339.011L803.015 383.34C808.822 402.093 788.202 420.206 759.495 420.853Z" fill="#3F3D56"/>
<path opacity="0.2" d="M789.297 339.011C779.52 344.6 768.429 347.479 757.169 347.351C745.908 347.223 734.885 344.093 725.238 338.283L728.473 326.771L785.813 327.749L789.297 339.011Z" fill="black"/>
<path d="M786.877 385.29C789.354 376.059 797.495 362.742 820.326 346.685C860.143 318.678 836.391 297.679 835.361 296.799C833.202 294.953 833.521 292.881 836.103 292.173C837.602 291.873 839.149 291.897 840.639 292.244C842.128 292.591 843.527 293.252 844.74 294.183C846.029 295.25 875.773 320.65 830.842 352.248C790.406 380.69 799.003 399.256 799.102 399.434C800.185 401.42 798.448 403.009 795.217 402.988C791.987 402.966 788.487 401.341 787.4 399.357C787.172 398.937 784.57 393.884 786.877 385.29Z" fill="#3F3D56"/>
<path d="M731.413 427.484C730.544 427.484 729.684 427.313 728.881 426.981C728.078 426.648 727.349 426.161 726.735 425.546C726.12 424.932 725.633 424.203 725.301 423.4C724.968 422.597 724.797 421.737 724.797 420.868V392.198C724.797 390.443 725.494 388.76 726.735 387.52C727.976 386.279 729.658 385.582 731.413 385.582C733.168 385.582 734.851 386.279 736.091 387.52C737.332 388.76 738.029 390.443 738.029 392.198V420.868C738.029 421.737 737.858 422.597 737.526 423.4C737.193 424.203 736.706 424.932 736.091 425.546C735.477 426.161 734.748 426.648 733.945 426.981C733.142 427.313 732.282 427.484 731.413 427.484Z" fill="#3F3D56"/>
<path d="M737.214 359.42C736.851 360.209 736.336 360.919 735.698 361.51C735.061 362.1 734.313 362.559 733.498 362.86C732.683 363.162 731.817 363.299 730.949 363.266C730.081 363.233 729.227 363.028 728.438 362.665L702.392 350.682C700.8 349.947 699.565 348.611 698.957 346.966C698.35 345.321 698.421 343.502 699.154 341.909C699.887 340.316 701.222 339.079 702.866 338.47C704.511 337.861 706.329 337.93 707.923 338.661L733.969 350.644C734.758 351.007 735.468 351.522 736.058 352.16C736.649 352.797 737.108 353.545 737.409 354.36C737.71 355.175 737.848 356.041 737.815 356.909C737.781 357.778 737.577 358.631 737.214 359.42Z" fill="#3F3D56"/>
<path d="M778.541 359.42C778.905 360.209 779.42 360.919 780.057 361.51C780.695 362.1 781.442 362.559 782.257 362.86C783.072 363.162 783.938 363.299 784.807 363.266C785.675 363.233 786.528 363.028 787.317 362.665L813.363 350.682C814.957 349.948 816.194 348.612 816.803 346.966C817.412 345.32 817.342 343.5 816.608 341.906C815.875 340.312 814.538 339.075 812.892 338.466C811.246 337.857 809.426 337.927 807.832 338.661L781.787 350.644C780.997 351.007 780.287 351.522 779.697 352.16C779.107 352.797 778.648 353.545 778.346 354.36C778.045 355.175 777.907 356.041 777.941 356.909C777.974 357.778 778.178 358.631 778.541 359.42Z" fill="#3F3D56"/>
<path d="M784.342 427.484C785.211 427.484 786.072 427.313 786.874 426.981C787.677 426.648 788.406 426.161 789.021 425.546C789.635 424.932 790.122 424.203 790.455 423.4C790.787 422.597 790.958 421.737 790.958 420.868V392.198C790.958 390.443 790.261 388.76 789.021 387.52C787.78 386.279 786.097 385.582 784.342 385.582C782.588 385.582 780.905 386.279 779.664 387.52C778.423 388.76 777.726 390.443 777.726 392.198V420.868C777.726 421.737 777.897 422.597 778.23 423.4C778.562 424.203 779.05 424.932 779.664 425.546C780.278 426.161 781.008 426.648 781.81 426.981C782.613 427.313 783.473 427.484 784.342 427.484Z" fill="#3F3D56"/>
<path d="M811.992 241.875C812.564 241.154 812.977 240.321 813.203 239.43C813.429 238.539 813.464 237.61 813.305 236.704L809.704 215.521L806.104 194.338C805.909 193.194 805.417 192.121 804.677 191.228C803.937 190.335 802.974 189.652 801.887 189.249C800.799 188.845 799.624 188.735 798.48 188.929C797.337 189.124 796.264 189.616 795.371 190.356L778.826 204.066L768.858 212.326C762.211 211.144 755.416 211.041 748.736 212.023L739.135 204.066L722.59 190.356C721.697 189.616 720.624 189.124 719.481 188.929C718.337 188.735 717.162 188.845 716.074 189.249C714.987 189.652 714.024 190.335 713.284 191.228C712.544 192.121 712.052 193.194 711.857 194.338L708.257 215.521L704.656 236.704C704.463 237.817 704.563 238.961 704.944 240.025C698.773 249.485 695.249 260.426 694.74 271.71C694.23 282.993 696.754 294.207 702.047 304.185C707.34 314.162 715.211 322.54 724.839 328.445C734.467 334.35 745.502 337.568 756.795 337.763C768.088 337.958 779.228 335.124 789.054 329.555C798.881 323.985 807.036 315.885 812.671 306.096C818.306 296.307 821.215 285.187 821.095 273.893C820.976 262.598 817.833 251.542 811.992 241.875Z" fill="#3F3D56"/>
<path d="M720.932 199.037C720.54 199.037 720.151 199.108 719.783 199.245C719.243 199.442 718.764 199.779 718.397 200.222C718.03 200.665 717.788 201.197 717.695 201.765L713.328 227.453C713.232 228.02 713.286 228.601 713.486 229.14C713.686 229.678 714.024 230.155 714.466 230.521C714.909 230.888 715.44 231.131 716.006 231.228C716.572 231.324 717.154 231.269 717.692 231.069L742.122 222.007C742.661 221.807 743.137 221.469 743.504 221.027C743.87 220.585 744.114 220.054 744.21 219.488C744.306 218.921 744.252 218.34 744.052 217.801C743.852 217.263 743.514 216.786 743.072 216.42L743.072 216.419L723.009 199.794C722.426 199.306 721.692 199.038 720.932 199.037Z" fill="#E6E6E6"/>
<path d="M797.029 199.037C796.269 199.038 795.534 199.306 794.952 199.794L774.889 216.42C774.447 216.786 774.109 217.263 773.909 217.801C773.709 218.34 773.655 218.921 773.751 219.488C773.847 220.054 774.091 220.585 774.457 221.027C774.824 221.469 775.3 221.807 775.839 222.007L800.269 231.069C800.807 231.269 801.389 231.324 801.955 231.228C802.521 231.131 803.052 230.888 803.495 230.521C803.937 230.155 804.275 229.678 804.475 229.14C804.674 228.601 804.729 228.02 804.633 227.453L800.266 201.765C800.173 201.197 799.931 200.665 799.564 200.222C799.197 199.779 798.718 199.442 798.178 199.245C797.81 199.108 797.421 199.037 797.029 199.037Z" fill="#E6E6E6"/>
<path d="M757.878 292.22C762.75 292.22 766.699 288.271 766.699 283.399C766.699 278.527 762.75 274.577 757.878 274.577C753.006 274.577 749.056 278.527 749.056 283.399C749.056 288.271 753.006 292.22 757.878 292.22Z" fill="#E6E6E6"/>
<path d="M757.878 281.193C761.126 281.193 763.759 280.206 763.759 278.988C763.759 277.77 761.126 276.783 757.878 276.783C754.63 276.783 751.997 277.77 751.997 278.988C751.997 280.206 754.63 281.193 757.878 281.193Z" fill="#3F3D56"/>
<path d="M753.467 288.545H761.553V298.469C761.553 299 761.449 299.526 761.246 300.016C761.042 300.507 760.745 300.952 760.369 301.328C759.994 301.703 759.548 302.001 759.057 302.204C758.567 302.407 758.041 302.512 757.51 302.512C756.438 302.512 755.409 302.086 754.651 301.328C753.893 300.57 753.467 299.541 753.467 298.469V288.545H753.467Z" fill="#FF6584"/>
<path d="M758.368 188.484C757.944 189.363 757.533 190.252 757.146 191.159C752.583 201.799 751.045 213.491 752.699 224.949C753.527 223.749 754.397 222.497 755.281 221.233C753.387 210.236 754.452 198.933 758.368 188.484Z" fill="#3F3D56"/>
<path d="M764.985 196.57C764.561 197.45 764.149 198.338 763.762 199.245C759.199 209.885 757.661 221.578 759.315 233.036C760.143 231.835 761.013 230.584 761.898 229.319C760.003 218.322 761.068 207.019 764.985 196.57Z" fill="#3F3D56"/>
<path d="M785.383 355.323L784.451 343.47L783.519 331.617C783.468 330.977 783.25 330.361 782.887 329.832C782.523 329.303 782.027 328.879 781.447 328.603C780.868 328.326 780.226 328.207 779.586 328.258C778.946 328.308 778.331 328.526 777.801 328.889L768.002 335.623L760.847 340.54C760.389 340.005 759.821 339.575 759.182 339.28C758.542 338.985 757.847 338.833 757.142 338.833C756.438 338.833 755.742 338.985 755.103 339.28C754.463 339.575 753.896 340.005 753.438 340.54L746.283 335.623L736.483 328.889C735.954 328.526 735.339 328.308 734.699 328.258C734.059 328.207 733.417 328.326 732.838 328.603C732.258 328.879 731.762 329.303 731.398 329.832C731.035 330.361 730.817 330.977 730.766 331.617L729.834 343.47L728.902 355.323C728.852 355.963 728.971 356.605 729.247 357.185C729.524 357.764 729.948 358.26 730.477 358.624C731.006 358.988 731.621 359.205 732.261 359.256C732.901 359.306 733.543 359.187 734.123 358.911L744.854 353.791L753.671 349.585C754.125 350.045 754.665 350.41 755.261 350.659C755.857 350.908 756.497 351.036 757.142 351.036C757.788 351.036 758.428 350.908 759.024 350.659C759.62 350.41 760.16 350.045 760.614 349.585L769.431 353.791L780.162 358.911C780.742 359.187 781.383 359.306 782.023 359.256C782.663 359.205 783.279 358.988 783.808 358.624C784.337 358.26 784.761 357.764 785.038 357.185C785.314 356.605 785.433 355.963 785.383 355.323Z" fill="#0D6EFD"/>
<path d="M746.116 276.047C747.334 276.047 748.321 275.06 748.321 273.842C748.321 272.624 747.334 271.637 746.116 271.637C744.898 271.637 743.91 272.624 743.91 273.842C743.91 275.06 744.898 276.047 746.116 276.047Z" fill="#E6E6E6"/>
<path d="M769.64 276.047C770.858 276.047 771.845 275.06 771.845 273.842C771.845 272.624 770.858 271.637 769.64 271.637C768.422 271.637 767.435 272.624 767.435 273.842C767.435 275.06 768.422 276.047 769.64 276.047Z" fill="#E6E6E6"/>
<path d="M331.166 401.369C331.703 401.377 332.239 401.384 332.783 401.384C333.327 401.384 333.864 401.377 334.401 401.369C362.85 400.723 383.471 382.947 378.222 364.297L365.423 318.8L362.189 307.287L304.848 308.265L301.364 319.527L287.646 363.856C281.839 382.609 302.459 400.722 331.166 401.369Z" fill="#3F3D56"/>
<path opacity="0.2" d="M301.364 319.527C311.141 325.116 322.232 327.995 333.492 327.867C344.753 327.739 355.776 324.609 365.423 318.8L362.189 307.287L304.848 308.265L301.364 319.527Z" fill="black"/>
<path d="M296.82 360.414C290.631 353.13 277.574 344.577 250.068 339.834C202.096 331.559 214.579 302.415 215.133 301.179C216.295 298.587 215.12 296.851 212.483 297.316C210.999 297.687 209.612 298.37 208.414 299.321C207.216 300.272 206.235 301.468 205.537 302.829C204.828 304.344 188.814 340.028 242.944 349.362C291.662 357.766 291.836 378.226 291.823 378.429C291.693 380.687 293.943 381.38 296.854 379.978C299.765 378.576 302.232 375.61 302.366 373.352C302.393 372.875 302.582 367.194 296.82 360.414Z" fill="#3F3D56"/>
<path d="M359.248 408C360.117 408 360.977 407.829 361.78 407.497C362.583 407.164 363.312 406.677 363.927 406.063C364.541 405.448 365.028 404.719 365.361 403.916C365.693 403.113 365.864 402.253 365.864 401.384V372.714C365.862 370.961 365.164 369.28 363.924 368.041C362.683 366.802 361.001 366.106 359.248 366.106C357.495 366.106 355.813 366.802 354.573 368.041C353.332 369.28 352.634 370.961 352.632 372.714V401.384C352.632 402.253 352.803 403.113 353.136 403.916C353.468 404.719 353.955 405.448 354.57 406.063C355.184 406.677 355.913 407.164 356.716 407.497C357.519 407.829 358.379 408 359.248 408Z" fill="#3F3D56"/>
<path d="M353.447 339.936C353.81 340.726 354.325 341.436 354.963 342.026C355.6 342.616 356.348 343.075 357.163 343.376C357.978 343.678 358.844 343.816 359.712 343.782C360.581 343.749 361.434 343.545 362.223 343.181L388.269 331.198C389.059 330.836 389.77 330.321 390.361 329.683C390.952 329.046 391.412 328.298 391.714 327.483C392.016 326.667 392.154 325.8 392.121 324.932C392.088 324.063 391.884 323.209 391.52 322.419C391.157 321.629 390.641 320.919 390.003 320.328C389.365 319.738 388.617 319.279 387.801 318.978C386.985 318.677 386.118 318.539 385.25 318.574C384.381 318.608 383.527 318.813 382.738 319.177L356.692 331.16C355.903 331.523 355.193 332.039 354.603 332.676C354.012 333.314 353.553 334.061 353.252 334.876C352.951 335.691 352.813 336.557 352.846 337.426C352.88 338.294 353.084 339.147 353.447 339.936Z" fill="#3F3D56"/>
<path d="M312.12 339.936C311.757 340.726 311.242 341.436 310.604 342.026C309.966 342.616 309.219 343.075 308.404 343.376C307.589 343.678 306.723 343.816 305.854 343.782C304.986 343.749 304.133 343.545 303.344 343.181L277.298 331.198C276.508 330.836 275.797 330.321 275.206 329.683C274.615 329.046 274.155 328.298 273.853 327.483C273.551 326.667 273.413 325.8 273.446 324.932C273.479 324.063 273.683 323.209 274.047 322.419C274.41 321.629 274.926 320.919 275.564 320.328C276.202 319.738 276.95 319.279 277.766 318.978C278.581 318.677 279.448 318.539 280.317 318.574C281.186 318.608 282.039 318.813 282.829 319.177L308.875 331.16C309.664 331.523 310.374 332.039 310.964 332.676C311.555 333.314 312.013 334.061 312.315 334.876C312.616 335.691 312.754 336.557 312.721 337.426C312.687 338.294 312.483 339.147 312.12 339.936Z" fill="#3F3D56"/>
<path d="M306.319 408C305.45 408 304.59 407.829 303.787 407.497C302.984 407.164 302.255 406.677 301.64 406.063C301.026 405.448 300.539 404.719 300.206 403.916C299.874 403.113 299.703 402.253 299.703 401.384V372.714C299.705 370.961 300.403 369.28 301.643 368.041C302.884 366.802 304.566 366.106 306.319 366.106C308.072 366.106 309.754 366.802 310.994 368.041C312.235 369.28 312.933 370.961 312.935 372.714V401.384C312.935 402.253 312.764 403.113 312.431 403.916C312.099 404.719 311.612 405.448 310.997 406.063C310.383 406.677 309.654 407.164 308.851 407.497C308.048 407.829 307.188 408 306.319 408Z" fill="#3F3D56"/>
<path d="M385.717 220.541C386.099 219.478 386.198 218.333 386.006 217.22L382.405 196.037L378.804 174.854C378.609 173.71 378.117 172.638 377.377 171.744C376.637 170.851 375.675 170.168 374.587 169.765C373.499 169.361 372.324 169.251 371.181 169.446C370.037 169.64 368.964 170.132 368.071 170.872L351.526 184.582L341.925 192.539C335.245 191.558 328.45 191.66 321.803 192.842L311.835 184.582L295.29 170.872C294.397 170.132 293.325 169.64 292.181 169.446C291.037 169.251 289.862 169.361 288.775 169.765C287.687 170.168 286.725 170.851 285.984 171.744C285.244 172.637 284.752 173.71 284.558 174.854L280.957 196.037L277.356 217.22C277.197 218.126 277.232 219.055 277.458 219.946C277.684 220.837 278.097 221.671 278.669 222.391C272.821 232.061 269.672 243.121 269.548 254.421C269.425 265.721 272.332 276.848 277.968 286.643C283.603 296.439 291.761 304.544 301.592 310.118C311.423 315.691 322.568 318.527 333.867 318.332C345.166 318.137 356.206 314.917 365.839 309.007C375.471 303.098 383.344 294.715 388.638 284.731C393.932 274.747 396.453 263.527 395.939 252.237C395.426 240.948 391.896 230.003 385.717 220.541H385.717Z" fill="#3F3D56"/>
<path d="M367.653 180.31L347.589 196.935L347.589 196.936C347.147 197.303 346.809 197.779 346.609 198.317C346.41 198.856 346.355 199.437 346.451 200.004C346.548 200.57 346.791 201.101 347.158 201.543C347.524 201.985 348 202.323 348.539 202.523L372.969 211.586C373.508 211.785 374.089 211.84 374.655 211.744C375.222 211.647 375.753 211.404 376.195 211.037C376.637 210.671 376.975 210.194 377.175 209.656C377.375 209.117 377.429 208.536 377.333 207.97L372.967 182.281C372.873 181.713 372.631 181.181 372.264 180.738C371.897 180.295 371.419 179.958 370.878 179.761C370.511 179.624 370.121 179.553 369.729 179.553C368.97 179.554 368.235 179.822 367.653 180.31Z" fill="#E6E6E6"/>
<path d="M292.483 179.761C291.943 179.958 291.465 180.295 291.098 180.738C290.731 181.181 290.488 181.713 290.395 182.281L286.028 207.97C285.932 208.536 285.987 209.117 286.186 209.656C286.386 210.194 286.724 210.671 287.167 211.037C287.609 211.404 288.14 211.647 288.706 211.744C289.272 211.84 289.854 211.785 290.392 211.586L314.823 202.523C315.361 202.323 315.837 201.985 316.204 201.543C316.57 201.101 316.814 200.57 316.91 200.004C317.006 199.437 316.952 198.856 316.752 198.317C316.553 197.779 316.215 197.303 315.772 196.936L295.709 180.31C295.127 179.822 294.392 179.554 293.632 179.553C293.24 179.553 292.851 179.624 292.483 179.761Z" fill="#E6E6E6"/>
<path d="M332.783 272.736C337.655 272.736 341.605 268.787 341.605 263.915C341.605 259.043 337.655 255.093 332.783 255.093C327.911 255.093 323.962 259.043 323.962 263.915C323.962 268.787 327.911 272.736 332.783 272.736Z" fill="#E6E6E6"/>
<path d="M332.783 261.709C336.031 261.709 338.664 260.722 338.664 259.504C338.664 258.286 336.031 257.299 332.783 257.299C329.535 257.299 326.902 258.286 326.902 259.504C326.902 260.722 329.535 261.709 332.783 261.709Z" fill="#3F3D56"/>
<path d="M333.151 283.028C332.62 283.028 332.094 282.924 331.604 282.72C331.113 282.517 330.667 282.219 330.292 281.844C329.917 281.469 329.619 281.023 329.416 280.532C329.212 280.042 329.108 279.516 329.108 278.985V269.061H337.194V278.985C337.194 279.516 337.09 280.042 336.886 280.532C336.683 281.023 336.385 281.469 336.01 281.844C335.635 282.219 335.189 282.517 334.698 282.72C334.208 282.924 333.682 283.028 333.151 283.028Z" fill="#FF6584"/>
<path d="M332.293 169C332.717 169.879 333.128 170.768 333.516 171.675C338.078 182.315 339.616 194.008 337.962 205.466C337.134 204.265 336.264 203.014 335.38 201.749C337.275 190.752 336.209 179.449 332.293 169Z" fill="#3F3D56"/>
<path d="M325.676 177.086C326.101 177.966 326.512 178.855 326.899 179.762C331.462 190.402 333 202.094 331.346 213.552C330.518 212.351 329.648 211.1 328.764 209.835C330.658 198.838 329.593 187.535 325.676 177.086Z" fill="#3F3D56"/>
<path d="M305.278 207.192L306.21 195.338L307.142 183.485C307.193 182.845 307.411 182.23 307.774 181.701C308.138 181.172 308.634 180.748 309.214 180.471C309.793 180.195 310.435 180.076 311.075 180.126C311.715 180.176 312.331 180.394 312.86 180.758L322.659 187.492L329.814 192.409C330.272 191.873 330.84 191.443 331.479 191.149C332.119 190.854 332.814 190.701 333.519 190.701C334.223 190.701 334.919 190.854 335.558 191.149C336.198 191.443 336.766 191.873 337.223 192.409L344.379 187.492L354.178 180.758C354.707 180.394 355.322 180.176 355.962 180.126C356.602 180.076 357.244 180.195 357.824 180.471C358.403 180.748 358.9 181.172 359.263 181.701C359.627 182.23 359.845 182.845 359.895 183.485L360.827 195.338L361.759 207.192C361.809 207.832 361.69 208.474 361.414 209.053C361.137 209.632 360.713 210.129 360.184 210.492C359.655 210.856 359.04 211.074 358.4 211.124C357.76 211.175 357.118 211.055 356.538 210.779L345.807 205.66L336.99 201.453C336.536 201.913 335.996 202.278 335.4 202.527C334.804 202.776 334.164 202.905 333.519 202.905C332.873 202.905 332.233 202.776 331.637 202.527C331.042 202.278 330.501 201.913 330.047 201.453L321.23 205.66L310.499 210.779C309.92 211.056 309.278 211.175 308.638 211.124C307.998 211.074 307.382 210.856 306.853 210.492C306.324 210.129 305.9 209.632 305.623 209.053C305.347 208.474 305.228 207.832 305.278 207.192Z" fill="#0D6EFD"/>
<path d="M342.34 254.358C342.34 255.576 343.328 254.358 344.546 254.358C345.764 254.358 346.751 255.576 346.751 254.358C346.75 253.774 346.517 253.214 346.103 252.802C345.69 252.389 345.13 252.157 344.546 252.157C343.961 252.157 343.401 252.389 342.988 252.802C342.574 253.214 342.341 253.774 342.34 254.358Z" fill="#E6E6E6"/>
<path d="M323.227 254.358C323.227 255.576 322.239 254.358 321.021 254.358C319.803 254.358 318.816 255.576 318.816 254.358C318.817 253.774 319.05 253.214 319.464 252.802C319.877 252.389 320.437 252.157 321.021 252.157C321.605 252.157 322.166 252.389 322.579 252.802C322.993 253.214 323.226 253.774 323.227 254.358Z" fill="#E6E6E6"/>
<path d="M567.907 420.872V406.854H497.816V407.73V420.872V533.895V547.914H511.834H567.907V533.895H511.834V420.872H567.907Z" fill="#3F3D56"/>
<path d="M602.077 406.854V547.914H672.169V406.854H602.077ZM658.151 533.895H616.096V420.872H658.151V533.895Z" fill="#0D6EFD"/>
<path d="M407.572 533.895V407.73H393.554V533.895V547.914H407.572H463.646V533.895H407.572Z" fill="#0D6EFD"/>
<path d="M362.013 420.872V406.854H291.921V407.73V420.872V469.937V483.955V533.895V547.914H305.939H362.013V533.895H305.939V483.955H362.013V469.937H305.939V420.872H362.013Z" fill="#3F3D56"/>
<path d="M910.481 420.872V406.854H840.389V407.73V420.872V469.937V483.955V533.895V547.914H854.408H910.481V533.895H854.408V483.955H910.481V469.937H854.408V420.872H910.481Z" fill="#0D6EFD"/>
<path d="M244.609 407.73V523.589L207.647 486.628L207.563 486.713L207.485 486.635L169.699 524.421V407.292H155.68V547.476H169.699V544.246L207.57 506.375L244.609 543.415V547.914H258.627V407.73H244.609Z" fill="#3F3D56"/>
<path d="M793.954 407.73V410.96L756.083 448.831L719.043 411.792V407.292H705.024V547.476H719.043V431.616L756.004 468.578L756.09 468.493L756.167 468.57L793.954 430.784V547.914H807.971V407.73H793.954Z" fill="#3F3D56"/>
<path d="M428.349 321.375C433.101 321.375 436.953 317.522 436.953 312.77C436.953 308.018 433.101 304.166 428.349 304.166C423.597 304.166 419.744 308.018 419.744 312.77C419.744 317.522 423.597 321.375 428.349 321.375Z" fill="#0D6EFD"/>
<path d="M216.106 416.98C220.858 416.98 224.71 413.127 224.71 408.375C224.71 403.623 220.858 399.771 216.106 399.771C211.354 399.771 207.501 403.623 207.501 408.375C207.501 413.127 211.354 416.98 216.106 416.98Z" fill="#0D6EFD"/>
<path d="M386.283 608.189C391.035 608.189 394.887 604.337 394.887 599.585C394.887 594.833 391.035 590.981 386.283 590.981C381.53 590.981 377.678 594.833 377.678 599.585C377.678 604.337 381.53 608.189 386.283 608.189Z" fill="#0D6EFD"/>
<path d="M602.35 347.188C607.102 347.188 610.954 343.336 610.954 338.584C610.954 333.831 607.102 329.979 602.35 329.979C597.598 329.979 593.745 333.831 593.745 338.584C593.745 343.336 597.598 347.188 602.35 347.188Z" fill="#0D6EFD"/>
<path d="M855.703 600.541C860.455 600.541 864.307 596.689 864.307 591.937C864.307 587.184 860.455 583.332 855.703 583.332C850.951 583.332 847.098 587.184 847.098 591.937C847.098 596.689 850.951 600.541 855.703 600.541Z" fill="#0D6EFD"/>
<path d="M864.307 374.913C869.059 374.913 872.912 371.061 872.912 366.309C872.912 361.557 869.059 357.705 864.307 357.705C859.555 357.705 855.703 361.557 855.703 366.309C855.703 371.061 859.555 374.913 864.307 374.913Z" fill="#0D6EFD"/>
<path d="M755.318 529.793C760.07 529.793 763.922 525.941 763.922 521.189C763.922 516.437 760.07 512.585 755.318 512.585C750.565 512.585 746.713 516.437 746.713 521.189C746.713 525.941 750.565 529.793 755.318 529.793Z" fill="#0D6EFD"/>
<defs>
<clipPath id="clip0_2_2">
<rect width="779.135" height="550.241" fill="white" transform="translate(108 704)"/>
</clipPath>
</defs>
</svg>
