<svg width="1066" height="1522" viewBox="0 0 1066 1522" fill="none" xmlns="http://www.w3.org/2000/svg">
<rect width="1066" height="1522" fill="white"/>
<path d="M532.538 526.603C778.049 526.603 977.076 521.036 977.076 514.169C977.076 507.301 778.049 501.734 532.538 501.734C287.026 501.734 88 507.301 88 514.169C88 521.036 287.026 526.603 532.538 526.603Z" fill="#E6E6E6"/>
<path d="M769.445 379.431C768.884 379.439 768.322 379.447 767.753 379.447C767.184 379.447 766.623 379.439 766.062 379.431C736.304 378.755 714.736 360.162 720.226 340.654L733.613 293.066L736.996 281.024L796.973 282.047L800.617 293.827L814.965 340.193C821.04 359.808 799.472 378.755 769.445 379.431Z" fill="#3F3D56"/>
<path opacity="0.2" d="M800.617 293.827C790.391 299.672 778.79 302.684 767.012 302.55C755.233 302.416 743.704 299.142 733.613 293.066L736.996 281.024L796.973 282.047L800.617 293.827Z" fill="black"/>
<path d="M798.086 342.233C800.677 332.577 809.192 318.648 833.072 301.854C874.72 272.559 849.876 250.594 848.799 249.674C846.541 247.744 846.874 245.576 849.575 244.835C851.143 244.522 852.761 244.547 854.319 244.91C855.877 245.273 857.34 245.964 858.609 246.938C859.957 248.054 891.068 274.621 844.072 307.672C801.777 337.422 810.769 356.842 810.872 357.028C812.006 359.105 810.188 360.767 806.809 360.744C803.43 360.722 799.77 359.022 798.633 356.947C798.394 356.508 795.673 351.223 798.086 342.233Z" fill="#3F3D56"/>
<path d="M740.072 386.367C739.163 386.367 738.264 386.188 737.424 385.84C736.584 385.492 735.821 384.983 735.179 384.34C734.536 383.698 734.026 382.935 733.679 382.095C733.331 381.255 733.152 380.355 733.152 379.447V349.459C733.152 347.623 733.881 345.863 735.179 344.565C736.477 343.267 738.237 342.538 740.072 342.538C741.908 342.538 743.668 343.267 744.966 344.565C746.263 345.863 746.992 347.623 746.992 349.459V379.447C746.993 380.355 746.814 381.255 746.466 382.095C746.118 382.935 745.608 383.698 744.966 384.34C744.323 384.983 743.56 385.492 742.721 385.84C741.881 386.188 740.981 386.367 740.072 386.367V386.367Z" fill="#3F3D56"/>
<path d="M746.14 315.174C745.76 316 745.221 316.742 744.554 317.36C743.887 317.977 743.105 318.457 742.253 318.772C741.401 319.087 740.495 319.232 739.586 319.197C738.678 319.162 737.786 318.948 736.96 318.568L709.717 306.034C708.052 305.266 706.76 303.868 706.125 302.147C705.489 300.426 705.563 298.524 706.33 296.858C707.096 295.192 708.493 293.898 710.213 293.261C711.933 292.624 713.835 292.696 715.502 293.46L742.745 305.995C743.571 306.374 744.314 306.913 744.931 307.58C745.549 308.247 746.029 309.029 746.344 309.881C746.659 310.734 746.803 311.64 746.768 312.548C746.733 313.456 746.52 314.348 746.14 315.174V315.174Z" fill="#3F3D56"/>
<path d="M789.367 315.174C789.747 316 790.286 316.742 790.953 317.36C791.619 317.977 792.401 318.457 793.254 318.772C794.106 319.087 795.012 319.232 795.92 319.197C796.828 319.162 797.721 318.948 798.546 318.568L825.789 306.034C827.457 305.267 828.751 303.869 829.388 302.147C830.024 300.426 829.951 298.522 829.184 296.855C828.417 295.187 827.019 293.893 825.297 293.256C823.576 292.62 821.672 292.693 820.004 293.46L792.761 305.995C791.936 306.374 791.193 306.913 790.576 307.58C789.958 308.247 789.478 309.029 789.163 309.881C788.848 310.734 788.704 311.64 788.739 312.548C788.774 313.456 788.987 314.348 789.367 315.174V315.174Z" fill="#3F3D56"/>
<path d="M795.435 386.367C796.343 386.367 797.243 386.188 798.083 385.84C798.923 385.492 799.685 384.983 800.328 384.34C800.971 383.698 801.48 382.935 801.828 382.095C802.176 381.255 802.355 380.355 802.355 379.447V349.459C802.355 347.623 801.626 345.863 800.328 344.565C799.03 343.267 797.27 342.538 795.435 342.538C793.599 342.538 791.839 343.267 790.541 344.565C789.243 345.863 788.514 347.623 788.514 349.459V379.447C788.514 380.355 788.693 381.255 789.041 382.095C789.389 382.935 789.899 383.698 790.541 384.34C791.184 384.983 791.947 385.492 792.786 385.84C793.626 386.188 794.526 386.367 795.435 386.367V386.367Z" fill="#3F3D56"/>
<path d="M824.356 192.225C824.954 191.471 825.385 190.6 825.622 189.668C825.859 188.736 825.895 187.764 825.729 186.816L821.963 164.659L818.196 142.502C817.993 141.306 817.478 140.184 816.704 139.25C815.93 138.316 814.923 137.601 813.785 137.179C812.648 136.757 811.419 136.642 810.223 136.846C809.026 137.049 807.904 137.564 806.97 138.338L789.665 152.678L779.239 161.318C772.286 160.081 765.179 159.974 758.192 161L748.149 152.678L730.844 138.338C729.909 137.564 728.787 137.049 727.591 136.846C726.395 136.642 725.166 136.757 724.028 137.179C722.891 137.601 721.884 138.316 721.11 139.25C720.335 140.184 719.821 141.306 719.617 142.502L715.851 164.659L712.085 186.816C711.884 187.981 711.987 189.178 712.386 190.29C705.931 200.185 702.246 211.629 701.713 223.431C701.18 235.233 703.819 246.963 709.356 257.399C714.893 267.836 723.125 276.598 733.196 282.775C743.267 288.952 754.809 292.317 766.621 292.521C778.434 292.725 790.085 289.76 800.363 283.935C810.642 278.11 819.171 269.638 825.065 259.399C830.959 249.16 834.002 237.528 833.877 225.715C833.752 213.901 830.465 202.337 824.356 192.225V192.225Z" fill="#3F3D56"/>
<path d="M729.109 147.418C728.699 147.418 728.292 147.492 727.908 147.636C727.342 147.841 726.842 148.194 726.458 148.657C726.074 149.12 725.82 149.677 725.723 150.271L721.156 177.141C721.055 177.733 721.112 178.341 721.321 178.904C721.53 179.468 721.884 179.966 722.346 180.349C722.809 180.733 723.364 180.988 723.957 181.088C724.549 181.189 725.157 181.132 725.721 180.923L751.274 171.443C751.837 171.234 752.335 170.881 752.719 170.418C753.102 169.956 753.357 169.401 753.457 168.808C753.558 168.216 753.501 167.608 753.292 167.045C753.083 166.482 752.73 165.983 752.267 165.6L752.267 165.599L731.281 148.209C730.672 147.699 729.904 147.419 729.109 147.418V147.418Z" fill="#E6E6E6"/>
<path d="M808.704 147.418C807.91 147.419 807.141 147.699 806.532 148.209L785.546 165.6C785.084 165.983 784.73 166.482 784.522 167.045C784.313 167.608 784.256 168.216 784.356 168.808C784.457 169.401 784.712 169.956 785.095 170.418C785.478 170.881 785.977 171.234 786.54 171.443L812.093 180.923C812.656 181.132 813.265 181.189 813.857 181.088C814.449 180.988 815.005 180.733 815.467 180.349C815.93 179.966 816.284 179.468 816.493 178.904C816.701 178.341 816.759 177.733 816.658 177.141L812.091 150.271C811.993 149.677 811.74 149.12 811.356 148.657C810.972 148.194 810.471 147.841 809.906 147.636C809.522 147.492 809.115 147.418 808.704 147.418Z" fill="#E6E6E6"/>
<path d="M767.753 244.885C772.849 244.885 776.981 240.754 776.981 235.658C776.981 230.562 772.849 226.431 767.753 226.431C762.657 226.431 758.526 230.562 758.526 235.658C758.526 240.754 762.657 244.885 767.753 244.885Z" fill="#E6E6E6"/>
<path d="M767.753 233.351C771.151 233.351 773.905 232.318 773.905 231.044C773.905 229.77 771.151 228.737 767.753 228.737C764.356 228.737 761.602 229.77 761.602 231.044C761.602 232.318 764.356 233.351 767.753 233.351Z" fill="#3F3D56"/>
<path d="M763.14 241.04H771.598V251.421C771.598 251.976 771.489 252.526 771.276 253.039C771.064 253.552 770.752 254.018 770.359 254.411C769.967 254.804 769.5 255.115 768.987 255.328C768.474 255.54 767.924 255.65 767.369 255.65V255.65C766.247 255.65 765.172 255.204 764.379 254.411C763.585 253.618 763.14 252.542 763.14 251.421V241.04H763.14Z" fill="#FF6584"/>
<path d="M768.267 136.38C767.823 137.299 767.393 138.229 766.988 139.178C762.216 150.307 760.606 162.537 762.337 174.522C763.202 173.265 764.112 171.957 765.038 170.634C763.056 159.131 764.17 147.309 768.267 136.38V136.38Z" fill="#3F3D56"/>
<path d="M775.187 144.838C774.744 145.757 774.313 146.687 773.908 147.636C769.136 158.765 767.527 170.995 769.257 182.98C770.123 181.724 771.033 180.415 771.958 179.092C769.976 167.59 771.091 155.767 775.187 144.838V144.838Z" fill="#3F3D56"/>
<path d="M796.523 310.889L795.548 298.491L794.573 286.093C794.521 285.423 794.293 284.779 793.912 284.226C793.532 283.673 793.013 283.229 792.407 282.94C791.801 282.651 791.129 282.526 790.46 282.579C789.79 282.632 789.147 282.86 788.593 283.24L778.344 290.283L770.859 295.426C770.381 294.866 769.786 294.417 769.118 294.108C768.449 293.8 767.721 293.64 766.984 293.64C766.248 293.64 765.52 293.8 764.851 294.108C764.182 294.417 763.588 294.866 763.11 295.426L755.625 290.283L745.376 283.24C744.822 282.859 744.179 282.632 743.509 282.579C742.84 282.526 742.168 282.651 741.562 282.94C740.956 283.229 740.437 283.673 740.057 284.226C739.676 284.779 739.448 285.423 739.396 286.093L738.421 298.491L737.446 310.889C737.393 311.558 737.518 312.23 737.807 312.836C738.096 313.442 738.54 313.961 739.093 314.341C739.646 314.722 740.29 314.949 740.96 315.002C741.629 315.055 742.3 314.93 742.906 314.641L754.131 309.286L763.354 304.887C763.828 305.367 764.393 305.749 765.017 306.01C765.64 306.27 766.309 306.405 766.984 306.405C767.66 306.405 768.329 306.27 768.952 306.01C769.575 305.749 770.141 305.367 770.615 304.887L779.838 309.286L791.062 314.641C791.668 314.93 792.34 315.055 793.009 315.002C793.679 314.949 794.322 314.722 794.876 314.341C795.429 313.961 795.873 313.442 796.162 312.836C796.451 312.23 796.576 311.558 796.523 310.889Z" fill="#0D6EFD"/>
<path d="M755.451 227.968C756.725 227.968 757.757 226.936 757.757 225.662C757.757 224.388 756.725 223.355 755.451 223.355C754.177 223.355 753.144 224.388 753.144 225.662C753.144 226.936 754.177 227.968 755.451 227.968Z" fill="#E6E6E6"/>
<path d="M780.056 227.968C781.33 227.968 782.363 226.936 782.363 225.662C782.363 224.388 781.33 223.355 780.056 223.355C778.782 223.355 777.75 224.388 777.75 225.662C777.75 226.936 778.782 227.968 780.056 227.968Z" fill="#E6E6E6"/>
<path d="M321.425 359.052C321.987 359.059 322.548 359.067 323.117 359.067C323.686 359.067 324.247 359.059 324.809 359.052C354.566 358.375 376.134 339.782 370.644 320.275L357.257 272.686L353.874 260.645L293.898 261.667L290.253 273.447L275.905 319.814C269.831 339.429 291.399 358.375 321.425 359.052Z" fill="#3F3D56"/>
<path opacity="0.2" d="M290.253 273.447C300.479 279.293 312.08 282.304 323.859 282.17C335.637 282.037 347.166 278.763 357.257 272.686L353.874 260.645L293.898 261.667L290.253 273.447Z" fill="black"/>
<path d="M285.5 316.214C279.026 308.595 265.37 299.649 236.599 294.688C186.422 286.032 199.479 255.548 200.058 254.256C201.273 251.545 200.044 249.728 197.286 250.215C195.734 250.602 194.283 251.318 193.03 252.312C191.777 253.307 190.751 254.557 190.021 255.981C189.279 257.566 172.529 294.891 229.148 304.654C280.105 313.444 280.287 334.844 280.273 335.056C280.138 337.419 282.491 338.143 285.536 336.677C288.58 335.211 291.161 332.108 291.301 329.746C291.329 329.247 291.527 323.305 285.5 316.214Z" fill="#3F3D56"/>
<path d="M350.798 365.987C351.707 365.987 352.607 365.808 353.447 365.461C354.286 365.113 355.049 364.603 355.692 363.961C356.334 363.318 356.844 362.555 357.192 361.715C357.54 360.876 357.719 359.976 357.719 359.067V329.079C357.716 327.245 356.986 325.487 355.689 324.191C354.391 322.895 352.632 322.167 350.798 322.167C348.964 322.167 347.205 322.895 345.908 324.191C344.61 325.487 343.88 327.245 343.878 329.079V359.067C343.878 359.976 344.057 360.876 344.405 361.715C344.752 362.555 345.262 363.318 345.905 363.961C346.547 364.603 347.31 365.113 348.15 365.461C348.99 365.808 349.89 365.987 350.798 365.987V365.987Z" fill="#3F3D56"/>
<path d="M344.731 294.794C345.11 295.62 345.649 296.363 346.316 296.98C346.983 297.598 347.765 298.078 348.617 298.393C349.47 298.708 350.376 298.852 351.284 298.817C352.192 298.782 353.084 298.569 353.91 298.189L381.153 285.655C381.98 285.275 382.723 284.737 383.342 284.07C383.96 283.403 384.441 282.621 384.757 281.768C385.073 280.915 385.217 280.009 385.182 279.1C385.148 278.191 384.934 277.298 384.554 276.472C384.174 275.646 383.635 274.903 382.967 274.285C382.3 273.668 381.517 273.188 380.664 272.873C379.811 272.558 378.904 272.414 377.995 272.45C377.087 272.485 376.194 272.7 375.368 273.081L348.125 285.615C347.299 285.995 346.557 286.534 345.939 287.201C345.322 287.867 344.842 288.649 344.527 289.502C344.211 290.354 344.067 291.26 344.102 292.168C344.137 293.076 344.351 293.969 344.731 294.794V294.794Z" fill="#3F3D56"/>
<path d="M301.503 294.794C301.124 295.62 300.585 296.363 299.918 296.98C299.251 297.598 298.469 298.078 297.617 298.393C296.764 298.708 295.858 298.852 294.95 298.817C294.042 298.782 293.15 298.569 292.324 298.189L265.081 285.655C264.254 285.275 263.511 284.737 262.892 284.07C262.274 283.403 261.793 282.621 261.477 281.768C261.162 280.915 261.017 280.009 261.052 279.1C261.086 278.191 261.3 277.298 261.68 276.472C262.06 275.646 262.599 274.903 263.267 274.285C263.934 273.668 264.717 273.188 265.57 272.873C266.423 272.558 267.33 272.414 268.239 272.45C269.148 272.485 270.04 272.7 270.866 273.081L298.109 285.615C298.935 285.995 299.677 286.534 300.295 287.201C300.912 287.867 301.392 288.649 301.707 289.502C302.023 290.354 302.167 291.26 302.132 292.168C302.097 293.076 301.883 293.969 301.503 294.794Z" fill="#3F3D56"/>
<path d="M295.436 365.987C294.527 365.987 293.627 365.808 292.788 365.461C291.948 365.113 291.185 364.603 290.542 363.961C289.9 363.318 289.39 362.555 289.042 361.715C288.694 360.876 288.515 359.976 288.516 359.067V329.079C288.518 327.245 289.248 325.487 290.545 324.191C291.843 322.895 293.602 322.167 295.436 322.167C297.27 322.167 299.029 322.895 300.326 324.191C301.624 325.487 302.354 327.245 302.356 329.079V359.067C302.356 359.976 302.177 360.876 301.829 361.715C301.482 362.555 300.972 363.318 300.329 363.961C299.687 364.603 298.924 365.113 298.084 365.461C297.245 365.808 296.345 365.987 295.436 365.987V365.987Z" fill="#3F3D56"/>
<path d="M378.484 169.91C378.883 168.798 378.987 167.601 378.786 166.437L375.019 144.28L371.253 122.123C371.05 120.926 370.535 119.805 369.761 118.87C368.986 117.936 367.98 117.222 366.842 116.8C365.704 116.378 364.476 116.263 363.279 116.466C362.083 116.669 360.961 117.184 360.027 117.958L342.722 132.299L332.679 140.621C325.691 139.595 318.585 139.702 311.632 140.938L301.206 132.299L283.9 117.958C282.966 117.184 281.844 116.669 280.648 116.466C279.452 116.263 278.223 116.378 277.085 116.8C275.947 117.222 274.941 117.936 274.166 118.87C273.392 119.805 272.878 120.926 272.674 122.123L268.908 144.28L265.141 166.437C264.975 167.384 265.012 168.356 265.248 169.288C265.485 170.22 265.917 171.092 266.515 171.845C260.398 181.96 257.104 193.529 256.975 205.348C256.846 217.168 259.887 228.806 265.781 239.051C271.676 249.297 280.209 257.776 290.492 263.605C300.775 269.434 312.432 272.401 324.25 272.197C336.069 271.993 347.617 268.625 357.692 262.444C367.767 256.263 376.002 247.494 381.539 237.051C387.076 226.608 389.713 214.872 389.176 203.064C388.639 191.256 384.947 179.808 378.484 169.91H378.484Z" fill="#3F3D56"/>
<path d="M359.589 127.83L338.604 145.22L338.603 145.22C338.141 145.604 337.787 146.102 337.578 146.665C337.37 147.228 337.313 147.837 337.413 148.429C337.514 149.021 337.769 149.576 338.152 150.039C338.535 150.501 339.034 150.855 339.597 151.064L365.15 160.543C365.713 160.752 366.322 160.809 366.914 160.709C367.506 160.608 368.062 160.353 368.524 159.97C368.987 159.587 369.34 159.088 369.549 158.525C369.758 157.962 369.815 157.353 369.715 156.761L365.147 129.891C365.05 129.298 364.796 128.741 364.412 128.278C364.029 127.815 363.528 127.462 362.963 127.256C362.579 127.112 362.172 127.039 361.761 127.038C360.967 127.04 360.198 127.32 359.589 127.83V127.83Z" fill="#E6E6E6"/>
<path d="M280.964 127.256C280.399 127.462 279.899 127.815 279.515 128.278C279.131 128.741 278.877 129.298 278.78 129.891L274.213 156.761C274.112 157.353 274.169 157.962 274.378 158.525C274.587 159.088 274.94 159.587 275.403 159.97C275.866 160.353 276.421 160.608 277.013 160.709C277.606 160.809 278.214 160.752 278.777 160.543L304.331 151.064C304.894 150.855 305.392 150.501 305.775 150.039C306.159 149.576 306.413 149.021 306.514 148.429C306.615 147.837 306.558 147.228 306.349 146.665C306.14 146.102 305.786 145.604 305.324 145.22L284.338 127.83C283.729 127.32 282.96 127.04 282.166 127.038C281.756 127.039 281.349 127.112 280.964 127.256Z" fill="#E6E6E6"/>
<path d="M323.117 224.505C328.213 224.505 332.344 220.374 332.344 215.278C332.344 210.182 328.213 206.051 323.117 206.051C318.021 206.051 313.89 210.182 313.89 215.278C313.89 220.374 318.021 224.505 323.117 224.505Z" fill="#E6E6E6"/>
<path d="M323.117 212.971C326.514 212.971 329.268 211.939 329.268 210.665C329.268 209.391 326.514 208.358 323.117 208.358C319.72 208.358 316.966 209.391 316.966 210.665C316.966 211.939 319.72 212.971 323.117 212.971Z" fill="#3F3D56"/>
<path d="M323.501 235.27C322.946 235.27 322.396 235.161 321.883 234.948C321.37 234.736 320.904 234.424 320.511 234.032C320.118 233.639 319.807 233.173 319.594 232.66C319.382 232.146 319.272 231.597 319.272 231.041V220.661H327.731V231.041C327.731 231.597 327.621 232.146 327.409 232.66C327.196 233.173 326.885 233.639 326.492 234.032C326.099 234.424 325.633 234.736 325.12 234.948C324.607 235.161 324.057 235.27 323.501 235.27V235.27Z" fill="#FF6584"/>
<path d="M322.604 116C323.047 116.92 323.478 117.849 323.883 118.798C328.655 129.927 330.264 142.157 328.534 154.142C327.668 152.886 326.758 151.577 325.833 150.254C327.815 138.752 326.7 126.929 322.604 116V116Z" fill="#3F3D56"/>
<path d="M315.683 124.458C316.127 125.378 316.558 126.308 316.963 127.256C321.735 138.386 323.344 150.615 321.613 162.6C320.748 161.344 319.838 160.036 318.912 158.712C320.894 147.21 319.78 135.388 315.683 124.458V124.458Z" fill="#3F3D56"/>
<path d="M294.347 155.947L295.322 143.549L296.297 131.151C296.35 130.482 296.578 129.838 296.958 129.285C297.338 128.731 297.858 128.288 298.464 127.998C299.07 127.709 299.741 127.585 300.411 127.638C301.08 127.69 301.724 127.918 302.277 128.298L312.527 135.342L320.011 140.485C320.49 139.925 321.084 139.475 321.753 139.167C322.422 138.858 323.149 138.699 323.886 138.699C324.623 138.699 325.35 138.858 326.019 139.167C326.688 139.475 327.282 139.925 327.761 140.485L335.245 135.342L345.495 128.298C346.048 127.918 346.692 127.69 347.361 127.638C348.031 127.585 348.702 127.709 349.308 127.998C349.914 128.288 350.434 128.731 350.814 129.285C351.194 129.838 351.422 130.482 351.475 131.151L352.45 143.549L353.425 155.947C353.477 156.617 353.353 157.288 353.064 157.894C352.774 158.5 352.331 159.02 351.778 159.4C351.224 159.78 350.58 160.008 349.911 160.061C349.242 160.113 348.57 159.989 347.964 159.7L336.739 154.345L327.517 149.945C327.042 150.426 326.477 150.808 325.854 151.068C325.23 151.329 324.562 151.463 323.886 151.463C323.21 151.463 322.542 151.329 321.918 151.068C321.295 150.808 320.73 150.426 320.255 149.945L311.033 154.345L299.808 159.7C299.202 159.989 298.531 160.113 297.861 160.061C297.192 160.008 296.548 159.78 295.995 159.4C295.441 159.02 294.998 158.5 294.708 157.894C294.419 157.288 294.295 156.617 294.347 155.947V155.947Z" fill="#0D6EFD"/>
<path d="M333.113 205.282C333.113 206.556 334.146 205.282 335.42 205.282C336.694 205.282 337.727 206.556 337.727 205.282C337.725 204.671 337.482 204.086 337.049 203.654C336.617 203.223 336.031 202.98 335.42 202.98C334.809 202.98 334.223 203.223 333.79 203.654C333.358 204.086 333.114 204.671 333.113 205.282V205.282Z" fill="#E6E6E6"/>
<path d="M313.121 205.282C313.121 206.556 312.088 205.282 310.814 205.282C309.54 205.282 308.507 206.556 308.507 205.282C308.509 204.671 308.752 204.086 309.185 203.654C309.617 203.223 310.203 202.98 310.814 202.98C311.425 202.98 312.011 203.223 312.444 203.654C312.876 204.086 313.12 204.671 313.121 205.282V205.282Z" fill="#E6E6E6"/>
<path d="M569.05 379.451V364.788H495.736V365.705V379.451V497.67V512.333H510.399H569.05V497.67H510.399V379.451H569.05Z" fill="#3F3D56"/>
<path d="M604.791 364.788V512.333H678.105V364.788H604.791ZM663.442 497.67H619.453V379.451H663.442V497.67Z" fill="#0D6EFD"/>
<path d="M401.344 497.67V365.705H386.681V497.67V512.333H401.344H459.995V497.67H401.344Z" fill="#0D6EFD"/>
<path d="M353.69 379.451V364.788H280.376V365.705V379.451V430.771V445.434V497.67V512.333H295.039H353.69V497.67H295.039V445.434H353.69V430.771H295.039V379.451H353.69Z" fill="#3F3D56"/>
<path d="M927.372 379.451V364.788H854.058V365.705V379.451V430.771V445.434V497.67V512.333H868.721H927.372V497.67H868.721V445.434H927.372V430.771H868.721V379.451H927.372Z" fill="#0D6EFD"/>
<path d="M230.889 365.705V486.89L192.228 448.23L192.14 448.319L192.058 448.237L152.535 487.76V365.247H137.872V511.875H152.535V508.496L192.147 468.884L230.889 507.627V512.333H245.552V365.705H230.889Z" fill="#3F3D56"/>
<path d="M805.488 365.705V369.083L765.876 408.695L727.133 369.953V365.247H712.47V511.875H727.133V390.689L765.794 429.35L765.883 429.261L765.964 429.342L805.488 389.819V512.333H820.15V365.705H805.488Z" fill="#3F3D56"/>
<path d="M423.076 275.38C428.046 275.38 432.076 271.35 432.076 266.38C432.076 261.409 428.046 257.38 423.076 257.38C418.105 257.38 414.076 261.409 414.076 266.38C414.076 271.35 418.105 275.38 423.076 275.38Z" fill="#0D6EFD"/>
<path d="M201.076 375.38C206.046 375.38 210.076 371.35 210.076 366.38C210.076 361.409 206.046 357.38 201.076 357.38C196.105 357.38 192.076 361.409 192.076 366.38C192.076 371.35 196.105 375.38 201.076 375.38Z" fill="#0D6EFD"/>
<path d="M379.076 575.38C384.046 575.38 388.076 571.35 388.076 566.38C388.076 561.409 384.046 557.38 379.076 557.38C374.105 557.38 370.076 561.409 370.076 566.38C370.076 571.35 374.105 575.38 379.076 575.38Z" fill="#0D6EFD"/>
<path d="M605.076 302.38C610.046 302.38 614.076 298.35 614.076 293.38C614.076 288.409 610.046 284.38 605.076 284.38C600.105 284.38 596.076 288.409 596.076 293.38C596.076 298.35 600.105 302.38 605.076 302.38Z" fill="#0D6EFD"/>
<path d="M870.076 567.38C875.046 567.38 879.076 563.35 879.076 558.38C879.076 553.409 875.046 549.38 870.076 549.38C865.105 549.38 861.076 553.409 861.076 558.38C861.076 563.35 865.105 567.38 870.076 567.38Z" fill="#0D6EFD"/>
<path d="M879.076 331.38C884.046 331.38 888.076 327.35 888.076 322.38C888.076 317.409 884.046 313.38 879.076 313.38C874.105 313.38 870.076 317.409 870.076 322.38C870.076 327.35 874.105 331.38 879.076 331.38Z" fill="#0D6EFD"/>
<path d="M765.076 493.38C770.046 493.38 774.076 489.35 774.076 484.38C774.076 479.409 770.046 475.38 765.076 475.38C760.105 475.38 756.076 479.409 756.076 484.38C756.076 489.35 760.105 493.38 765.076 493.38Z" fill="#0D6EFD"/>
<path d="M398.208 1050.82C430.808 993.47 492.991 949.438 558.817 953.68C510.262 1006.48 481.948 1074.76 478.885 1146.42C477.805 1174.07 479.481 1204.93 461.126 1225.63C449.706 1238.51 432.25 1244.74 415.086 1246.05C397.922 1247.36 380.762 1244.26 363.827 1241.17L359.719 1242.43C358.155 1176.49 365.609 1108.16 398.208 1050.82Z" fill="#F0F0F0"/>
<path d="M558.915 955.061C510.237 978.494 468.731 1017.63 443.251 1065.36C437.742 1075.68 433.052 1086.63 431.007 1098.2C428.96 1109.78 430.389 1120.8 434.345 1131.8C437.961 1141.86 442.824 1151.72 443.932 1162.48C445.101 1173.82 440.929 1184.43 433.418 1192.84C424.228 1203.14 411.887 1209.52 399.601 1215.34C385.96 1221.8 371.689 1228.3 362.028 1240.36C360.857 1241.82 358.658 1239.92 359.827 1238.46C376.636 1217.47 405.41 1213.53 425.363 1196.63C434.673 1188.74 441.663 1178 441.222 1165.41C440.836 1154.41 435.83 1144.23 432.081 1134.08C428.145 1123.42 426.181 1112.71 427.593 1101.35C429.037 1089.72 433.309 1078.57 438.53 1068.16C450.304 1044.67 466.417 1023.11 484.875 1004.46C506.089 983.039 530.811 965.399 557.973 952.309C559.655 951.5 560.585 954.256 558.915 955.061V955.061Z" fill="white"/>
<path d="M450.715 1049.41C443.252 1043.95 437.972 1036.02 435.818 1027.03C433.664 1018.04 434.775 1008.58 438.954 1000.33C439.805 998.666 442.433 999.911 441.581 1001.58C437.676 1009.25 436.641 1018.07 438.664 1026.43C440.688 1034.8 445.635 1042.17 452.614 1047.21C454.13 1048.31 452.221 1050.5 450.715 1049.41V1049.41Z" fill="white"/>
<path d="M431.84 1126.95C450.539 1124.21 467.521 1114.53 479.4 1099.84C480.576 1098.38 482.776 1100.28 481.601 1101.74C469.211 1117.01 451.518 1127.05 432.053 1129.85C430.197 1130.11 429.994 1127.21 431.84 1126.95V1126.95Z" fill="white"/>
<path d="M507.525 986.616C509.972 989.329 513.055 991.391 516.497 992.618C519.938 993.845 523.631 994.198 527.242 993.646C529.094 993.357 529.294 996.258 527.455 996.545C523.462 997.137 519.385 996.742 515.579 995.395C511.774 994.048 508.356 991.789 505.625 988.817C505.344 988.558 505.172 988.202 505.144 987.821C505.116 987.44 505.234 987.063 505.475 986.766C505.728 986.476 506.085 986.298 506.469 986.27C506.853 986.241 507.232 986.366 507.525 986.616Z" fill="white"/>
<path d="M689.791 1134.58C688.64 1134.8 687.489 1135.01 686.328 1135.25C670.872 1138.19 655.68 1142.39 640.903 1147.8C639.754 1148.2 638.596 1148.62 637.461 1149.06C601.999 1162.47 569.336 1182.34 541.131 1207.68C529.917 1217.77 519.487 1228.7 509.931 1240.37C496.735 1256.5 483.71 1275.03 466.466 1285.54C464.679 1286.66 462.825 1287.66 460.914 1288.55L361.576 1247.35C361.398 1247.14 361.208 1246.95 361.028 1246.75L356.987 1245.28C357.438 1244.65 357.919 1244 358.37 1243.36C358.63 1242.99 358.912 1242.63 359.172 1242.26C359.352 1242.01 359.534 1241.77 359.682 1241.54C359.742 1241.46 359.803 1241.38 359.853 1241.32C360.002 1241.09 360.165 1240.89 360.304 1240.68C362.984 1237.04 365.694 1233.41 368.434 1229.79C368.444 1229.77 368.444 1229.77 368.475 1229.75C389.426 1202.24 412.858 1176.23 439.492 1154.6C440.294 1153.95 441.104 1153.28 441.951 1152.65C454.01 1142.97 466.841 1134.29 480.315 1126.7C487.706 1122.56 495.302 1118.81 503.073 1115.44C523.168 1106.79 544.5 1101.35 566.287 1099.32C609.718 1095.29 653.956 1105.19 687.267 1132.47C688.118 1133.17 688.949 1133.86 689.791 1134.58Z" fill="#F0F0F0"/>
<path d="M689.045 1135.75C636.07 1125.15 579.366 1131.41 530.286 1154.18C519.675 1159.1 509.339 1165.02 500.736 1173.03C492.13 1181.05 486.635 1190.71 483.171 1201.87C480.005 1212.08 477.947 1222.88 472.355 1232.14C466.461 1241.9 456.745 1247.85 445.681 1250.05C432.145 1252.74 418.45 1250.4 405.136 1247.65C390.354 1244.6 375.048 1241.19 360.073 1245C358.258 1245.47 357.648 1242.62 359.459 1242.16C385.514 1235.53 410.863 1249.7 436.971 1248.22C449.154 1247.53 461.202 1243.16 468.427 1232.85C474.745 1223.83 476.876 1212.69 479.993 1202.33C483.266 1191.45 488.149 1181.71 496.117 1173.49C504.268 1165.08 514.394 1158.74 524.833 1153.57C548.375 1141.91 574.223 1134.39 600.183 1130.62C630.021 1126.29 660.381 1127.09 689.949 1132.99C691.779 1133.35 690.863 1136.11 689.045 1135.75V1135.75Z" fill="white"/>
<path d="M545.849 1145.94C543.176 1137.09 543.735 1127.58 547.428 1119.1C551.12 1110.63 557.705 1103.74 566.006 1099.67C567.689 1098.86 569.038 1101.43 567.353 1102.25C559.616 1106.02 553.483 1112.44 550.061 1120.34C546.638 1128.24 546.152 1137.1 548.691 1145.33C549.24 1147.11 546.395 1147.72 545.849 1145.94Z" fill="white"/>
<path d="M484.095 1196.48C500.671 1205.56 520.058 1208.06 538.391 1203.47C540.208 1203.02 540.819 1205.86 539.005 1206.32C519.918 1211.05 499.747 1208.41 482.52 1198.93C480.878 1198.02 482.463 1195.58 484.095 1196.48V1196.48Z" fill="white"/>
<path d="M629.014 1130.01C629.335 1133.65 630.555 1137.15 632.564 1140.2C634.573 1143.25 637.309 1145.76 640.525 1147.49C642.177 1148.37 640.591 1150.81 638.949 1149.93C635.405 1148 632.387 1145.23 630.159 1141.87C627.932 1138.5 626.563 1134.64 626.172 1130.62C626.104 1130.24 626.181 1129.86 626.388 1129.54C626.595 1129.21 626.916 1128.98 627.286 1128.89C627.663 1128.81 628.056 1128.89 628.379 1129.09C628.703 1129.3 628.931 1129.63 629.014 1130.01V1130.01Z" fill="white"/>
<path d="M500.559 1202.56C486.647 1135.29 469.257 1112.87 469.257 1112.87L462.614 1107.72L454.624 1101.51L454.663 1100.71L452.768 1100.07L452.323 1099.72L451.594 1099.16L451.476 1099.29L451.229 1099.54L415.076 1087.26L369.211 1071.68L347.972 1044.07C344.513 1039.57 340.06 1035.94 334.962 1033.45C329.863 1030.97 324.258 1029.69 318.586 1029.74L250.756 1030.24C241.585 1030.31 232.771 1033.8 226.047 1040.04L181.464 1081.39L111.995 1114.57L111.877 1114.45L111.148 1114.98L100.414 1120.11L100.857 1122.41L94.2137 1127.21C94.2137 1127.21 76.8237 1148.08 62.9117 1210.67C59.3726 1226.59 57.6306 1260.76 57.0018 1302.85C56.9702 1304.98 57.3623 1307.1 58.1553 1309.08C58.9482 1311.05 60.1263 1312.85 61.6209 1314.37C63.1155 1315.89 64.8968 1317.09 66.8613 1317.91C68.8259 1318.74 70.9343 1319.16 73.0642 1319.16H444.112V1319.16H490.423C492.552 1319.16 494.659 1318.74 496.622 1317.92C498.585 1317.09 500.366 1315.89 501.86 1314.37C503.354 1312.86 504.533 1311.06 505.327 1309.09C506.121 1307.11 506.515 1305 506.486 1302.87C505.872 1257.06 504.13 1219.83 500.559 1202.56Z" fill="#3F3D56"/>
<path d="M548.166 745.662C533.73 745.662 519.886 751.397 509.678 761.605C499.47 771.812 493.735 785.657 493.735 800.093C493.735 814.529 499.47 828.374 509.678 838.581C519.886 848.789 533.73 854.524 548.166 854.524H953.805C968.241 854.524 982.085 848.789 992.293 838.581C1002.5 828.374 1008.24 814.529 1008.24 800.093C1008.24 785.657 1002.5 771.812 992.293 761.605C982.085 751.397 968.241 745.662 953.805 745.662H548.166Z" fill="#E5E5E5"/>
<path d="M548.166 756.678C536.652 756.678 525.609 761.252 517.467 769.394C509.325 777.536 504.751 788.579 504.751 800.093C504.751 811.607 509.325 822.65 517.467 830.792C525.609 838.934 536.652 843.508 548.166 843.508H953.805C965.319 843.508 976.362 838.934 984.504 830.792C992.646 822.65 997.22 811.607 997.22 800.093C997.22 788.579 992.646 777.536 984.504 769.394C976.362 761.252 965.319 756.678 953.805 756.678H548.166Z" fill="white"/>
<path d="M295.323 1004.25C344.4 1004.25 384.186 964.47 384.186 915.392C384.186 866.314 344.4 826.529 295.323 826.529C246.245 826.529 206.46 866.314 206.46 915.392C206.46 964.47 246.245 1004.25 295.323 1004.25Z" fill="#9E616A"/>
<path d="M272.59 999.904C272.21 999.068 271.832 998.229 271.454 997.388C271.6 997.392 271.744 997.413 271.889 997.417L272.59 999.904Z" fill="#2F2E41"/>
<path d="M203.989 830.57C208.483 826.985 213.736 823.686 219.483 823.871C225.229 824.057 231.056 829.247 229.865 834.871C240.42 816.183 257.22 801.81 277.316 794.274C297.412 786.739 319.521 786.523 339.761 793.663C354.042 798.702 368.048 808.783 371.329 823.568C372.171 827.363 372.352 831.524 374.721 834.606C377.709 838.492 383.426 839.371 388.133 838.004C388.18 837.991 388.227 837.977 388.274 837.963C389.069 837.691 389.928 837.664 390.738 837.886C391.549 838.108 392.274 838.567 392.821 839.206C393.367 839.844 393.709 840.632 393.803 841.467C393.897 842.302 393.738 843.146 393.347 843.89L389.306 851.426C394.4 852.562 399.693 852.449 404.734 851.098C405.572 850.878 406.457 850.923 407.268 851.226C408.079 851.53 408.776 852.076 409.264 852.791C409.752 853.506 410.007 854.355 409.993 855.221C409.98 856.086 409.699 856.927 409.189 857.626C395.864 875.92 373.603 887.734 350.886 887.595C334.74 887.496 318.428 881.932 302.714 885.645C296.635 887.081 290.955 889.86 286.09 893.778C281.225 897.696 277.299 902.654 274.6 908.287C271.901 913.92 270.498 920.086 270.492 926.333C270.487 932.579 271.881 938.747 274.57 944.385C269.743 939.105 260.411 940.355 255.473 945.532C250.535 950.709 249.257 958.436 249.755 965.573C250.515 976.489 254.792 986.774 259.301 996.785C221.5 995.595 185.746 969.078 173.711 933.213C161.626 897.198 174.292 854.261 203.989 830.57Z" fill="#2F2E41"/>
<path opacity="0.2" d="M144.464 1182.25L169.388 1317.86L184.343 1319.16L144.464 1182.25Z" fill="black"/>
<path opacity="0.2" d="M419.007 1172.03L394.083 1317.76L379.128 1319.16L419.007 1172.03Z" fill="black"/>
<path d="M225.247 784.932C220.468 786.928 215.482 784.741 213.39 779.732C211.267 774.648 213.25 769.486 218.106 767.459C222.962 765.431 227.859 767.623 230.017 772.79C232.142 777.879 230.18 782.872 225.247 784.932ZM216.093 757.45L212.293 759.037C211.344 759.428 210.282 759.449 209.318 759.096C208.354 758.742 207.558 758.04 207.087 757.127L206.899 756.76C202.811 749.386 202.343 740.425 205.515 730.139C208.454 720.911 209.675 714.422 207.22 708.543C204.382 701.745 198.321 699.616 190.592 702.7C187.594 703.952 186.64 703.932 184.281 706.272C183.768 706.788 183.156 707.194 182.482 707.468C181.809 707.742 181.087 707.877 180.36 707.866C179.657 707.858 178.963 707.708 178.319 707.426C177.675 707.143 177.095 706.734 176.613 706.223C175.683 705.237 175.163 703.936 175.156 702.582C175.149 701.227 175.657 699.92 176.576 698.926C180.541 694.775 185.323 691.491 190.621 689.281C207.228 682.347 215.588 692.585 219.413 701.746C223.155 710.707 221.05 719.022 217.668 729.79C214.834 738.737 214.999 745.367 218.219 751.959C218.451 752.458 218.58 752.998 218.599 753.548C218.617 754.097 218.524 754.645 218.326 755.158C218.127 755.671 217.827 756.138 217.443 756.532C217.06 756.926 216.6 757.238 216.093 757.45L216.093 757.45Z" fill="#0D6EFD"/>
<path d="M637.767 826.053H557.06C556.803 826.054 556.549 826.005 556.312 825.909C556.074 825.812 555.858 825.669 555.676 825.488C555.494 825.307 555.35 825.093 555.252 824.856C555.153 824.619 555.102 824.365 555.102 824.109C555.102 823.852 555.153 823.599 555.252 823.362C555.35 823.125 555.494 822.91 555.676 822.73C555.858 822.549 556.074 822.406 556.312 822.309C556.549 822.212 556.803 822.163 557.06 822.165H637.767C638.28 822.168 638.771 822.375 639.133 822.739C639.494 823.103 639.697 823.595 639.697 824.109C639.697 824.622 639.494 825.115 639.133 825.479C638.771 825.843 638.28 826.049 637.767 826.053Z" fill="#0D6EFD"/>
<path d="M740.148 826.701H659.441C659.185 826.702 658.931 826.653 658.693 826.557C658.456 826.46 658.24 826.317 658.058 826.136C657.876 825.955 657.732 825.74 657.633 825.504C657.535 825.267 657.484 825.013 657.484 824.757C657.484 824.5 657.535 824.246 657.633 824.01C657.732 823.773 657.876 823.558 658.058 823.377C658.24 823.197 658.456 823.054 658.693 822.957C658.931 822.86 659.185 822.811 659.441 822.813H740.148C740.405 822.811 740.659 822.86 740.896 822.957C741.134 823.054 741.349 823.197 741.531 823.377C741.713 823.558 741.858 823.773 741.956 824.01C742.055 824.246 742.105 824.5 742.105 824.757C742.105 825.013 742.055 825.267 741.956 825.504C741.858 825.74 741.713 825.955 741.531 826.136C741.349 826.317 741.134 826.46 740.896 826.557C740.659 826.653 740.405 826.702 740.148 826.701V826.701Z" fill="#0D6EFD"/>
<path d="M842.53 827.349H761.823C761.309 827.345 760.818 827.139 760.457 826.775C760.095 826.41 759.892 825.918 759.892 825.405C759.892 824.891 760.095 824.399 760.457 824.035C760.818 823.671 761.309 823.464 761.823 823.461H842.53C842.786 823.459 843.04 823.508 843.278 823.605C843.515 823.702 843.731 823.845 843.913 824.025C844.095 824.206 844.239 824.421 844.338 824.658C844.436 824.894 844.487 825.148 844.487 825.405C844.487 825.661 844.436 825.915 844.338 826.152C844.239 826.388 844.095 826.603 843.913 826.784C843.731 826.965 843.515 827.108 843.278 827.205C843.04 827.301 842.786 827.35 842.53 827.349H842.53Z" fill="#0D6EFD"/>
<path d="M944.911 827.997H864.204C863.691 827.993 863.2 827.787 862.838 827.423C862.477 827.058 862.274 826.566 862.274 826.053C862.274 825.539 862.477 825.047 862.838 824.683C863.2 824.319 863.691 824.112 864.204 824.109H944.911C945.425 824.112 945.916 824.319 946.277 824.683C946.639 825.047 946.842 825.539 946.842 826.053C946.842 826.566 946.639 827.058 946.277 827.423C945.916 827.787 945.425 827.993 944.911 827.997Z" fill="#0D6EFD"/>
<path d="M597.235 808.162C605.52 808.162 612.235 801.447 612.235 793.162C612.235 784.878 605.52 778.162 597.235 778.162C588.951 778.162 582.235 784.878 582.235 793.162C582.235 801.447 588.951 808.162 597.235 808.162Z" fill="#0D6EFD"/>
<path d="M700.235 808.162C708.52 808.162 715.235 801.447 715.235 793.162C715.235 784.878 708.52 778.162 700.235 778.162C691.951 778.162 685.235 784.878 685.235 793.162C685.235 801.447 691.951 808.162 700.235 808.162Z" fill="#0D6EFD"/>
<path d="M803.235 808.162C811.52 808.162 818.235 801.447 818.235 793.162C818.235 784.878 811.52 778.162 803.235 778.162C794.951 778.162 788.235 784.878 788.235 793.162C788.235 801.447 794.951 808.162 803.235 808.162Z" fill="#0D6EFD"/>
<path d="M906.235 808.162C914.52 808.162 921.235 801.447 921.235 793.162C921.235 784.878 914.52 778.162 906.235 778.162C897.951 778.162 891.235 784.878 891.235 793.162C891.235 801.447 897.951 808.162 906.235 808.162Z" fill="#0D6EFD"/>
</svg>
